<?xml version="1.0" encoding="UTF-8"?>
<svg version="1.1" viewBox="0 0 2048 2048" width="1280" height="1280" xmlns="http://www.w3.org/2000/svg">
<path transform="translate(169,84)" d="m0 0h78l442 1h254l23 2 19 4 20 7 16 8 15 9 16 13 8 7 7 8 12 15 9 15 8 16 6 16 5 22 2 20v265h702l19 3 21 6 18 8 14 8 14 10 14 12 9 9 11 14 9 14 9 17 7 19 4 16 3 19 1 72v43l-1 181v673l-4 24-5 18-9 21-8 14-10 14-9 10-7 8-14 12-13 9-16 9-19 8-18 5-15 3-16 1h-517l-21-1-20-3-20-6-19-8-14-8-14-10-14-12-7-7-9-11-10-14-10-18-9-23-5-23-2-22-1-260h-432l-419 1-1 509-2 21-5 15-6 11-10 13-7 7-14 9-11 5-19 5-14 1-16-2-15-5-13-7-9-7-12-12-9-14-6-15-2-9-1-10-1-533v-1184l3-16 5-15 6-10 10-13 7-7 15-10 12-5 15-4z" fill="#820025"/>
<path transform="translate(1109,512)" d="m0 0h702l19 3 21 6 18 8 14 8 14 10 14 12 9 9 11 14 9 14 9 17 7 19 4 16 3 19 1 72v43l-1 181v402h-425l-2-1-1-46v-297l1-82-424-1-2-1-1-15-1-44v-207z" fill="#FE4C5E"/>
<path transform="translate(682,938)" d="m0 0h428v426l425 1 1 1 1 80v253l-1 93h-253l-21-1-20-3-20-6-19-8-14-8-14-10-14-12-7-7-9-11-10-14-10-18-9-23-5-23-2-22-1-260-426-1z" fill="#FD4B5D"/>
<path transform="translate(1115,938)" d="m0 0h410l11 1v425h342l85 1v271l-4 24-5 18-9 21-8 14-10 14-9 10-7 8-14 12-13 9-16 9-19 8-18 5-15 3-16 1h-264v-346l-1-80-425-1-1-2v-382l2-42z" fill="#820025"/>
<path transform="translate(1539,938)" d="m0 0h424v427h-425l-2-1-1-46v-297l1-82z" fill="#FE4C5E"/>
<path transform="translate(670,511)" d="m0 0h12l1 366v60l-1 1h-426v-425l1-1z" fill="#FE4C5E"/>
<path transform="translate(1112,512)" d="m0 0h699l19 3 21 6 18 8 14 8 14 10 14 12 9 9 11 14 9 14 9 17 7 19 4 16 3 19 1 72v43l-1 156-1 1h-426l-1-425h-368l-55-1z" fill="#810025"/>
<path transform="translate(681,85)" d="m0 0h262l23 2 19 4 20 7 16 8 15 9 16 13 8 7 7 8 12 15 9 15 8 16 6 16 5 22 2 20v265l-426-1-1-54v-346z" fill="#FE4C5E"/>
<path transform="translate(1512,940)" d="m0 0h22l1 423h-15l2-4 5-3 1-7-3-19v-38l-1-12v-224-3l1-19v-28l1-2-2-1 1-7h2l-2-4v-6l1-2h-2v-8l-1-4v-7l-2-10h-2l-3-5-8-4h-2l1-5z" fill="#6D0022"/>
<path transform="translate(1094,514)" d="m0 0h9l4 2 1 2v81l-1 314-4 1-3-3-2-11-2-51v-51l-1-15 1-13v-73l1-44v-19l2-3-1-1v-92l1-3-3-10v-3l-6-2-4-2v-2z" fill="#6D0022"/>
<path transform="translate(656,940)" d="m0 0h24l1 5v180l-1 159-1 4-1 11-1 3h-2l-1-5-1-7-1-20-1-10-1-34 1-9-1-4v-83l1-6v-8l-1-4v-110l1-7-1-22-1-9-2-7-2-3v-3l-10-3-5-2 1-2h2l-1-3z" fill="#6D0022"/>
<path transform="translate(675,97)" d="m0 0 4 2 2 4v378l-4 3-2-1-3-19-1-12v-60l-1-4 1-5-1-3 1-5-1-4v-11l1-5-1-18v-8l1-4-1-16v-7l1-6-1-4v-8l1-8v-9l-1-3 1-5v-90l-1-11 1-27v-27l3-6z" fill="#6D0022"/>
<path transform="translate(250,543)" d="m0 0h3l1 7v366l-1 1 1 14-2 2-2-14v-10l-1-9-2-30-1-53v-71l1-8-1-21v-29l1-17v-95l2-23v-8z" fill="#6D0022"/>
<path transform="translate(684,614)" d="m0 0 2 1v10l1 18 1 28v150l1 32v31l3 34 1 7 2 6 7 2 5 1 1 2-4 1h-18l-2-10z" fill="#6D0022"/>
<path transform="translate(1538,589)" d="m0 0h1l1 17v79l1 13-1 6 1 11v26l-1 1 1 24v5l-1 1v13l1 5-1 1v89l1 16 2 3 2 18 1 4v7h2v2l9 4 1 3h-20l-1-62v-42z" fill="#6D0022"/>
<path transform="translate(1538,1416)" d="m0 0h1l1 35 1 6v161l-1 33-1 57h-1z" fill="#6D0022"/>
<path transform="translate(1111,939)" d="m0 0 9 1-1 7-3 3-1 2h-2l-1 5h-1z" fill="#6D0022"/>
<path transform="translate(684,512)" d="m0 0 11 2v4l-7 4h-4z" fill="#6D0022"/>
<path transform="translate(1106,926)" d="m0 0 2 4v6h-8l-2-3 4-5z" fill="#6D0022"/>
<path transform="translate(1538,1366)" d="m0 0 6 2 1 3-4 4h-4v-8z" fill="#6D0022"/>
<path transform="translate(676,503)" d="m0 0 4 2v5h-6v-5z" fill="#6D0022"/>
</svg>
