<?xml version="1.0" standalone="no"?>
<!DOCTYPE svg PUBLIC "-//W3C//DTD SVG 20010904//EN"
 "http://www.w3.org/TR/2001/REC-SVG-20010904/DTD/svg10.dtd">
<svg version="1.0" xmlns="http://www.w3.org/2000/svg"
 width="512.000000pt" height="512.000000pt" viewBox="0 0 512.000000 512.000000"
 preserveAspectRatio="xMidYMid meet">

<g transform="translate(0.000000,512.000000) scale(0.100000,-0.100000)"
fill="#000000" stroke="none">
<path d="M361 4895 c-61 -19 -118 -78 -136 -139 -13 -43 -15 -336 -15 -2187 0
-1539 3 -2153 11 -2190 16 -74 84 -142 158 -158 98 -21 191 23 236 112 l25 51
0 663 0 663 1068 -2 1067 -3 5 -375 5 -375 34 -70 c61 -123 174 -209 310 -235
87 -16 1393 -13 1456 4 143 38 257 145 303 284 22 69 27 2470 5 2574 -24 112
-112 227 -215 279 -96 49 -86 49 -1025 49 l-883 0 0 335 c0 209 -4 354 -11
387 -13 59 -49 136 -87 186 -40 52 -130 111 -204 133 l-68 21 -43 -35 c-23
-20 -177 -159 -342 -310 l-300 -274 -3 314 -2 313 -653 -1 c-522 0 -661 -3
-696 -14z m829 -1088 c-19 -19 -136 -125 -260 -237 -124 -112 -240 -217 -257
-234 l-33 -30 0 267 0 267 292 0 293 0 -35 -33z"/>
</g>
</svg>
