<?xml version="1.0" encoding="UTF-8"?>
<svg version="1.1" viewBox="0 0 2048 2048" width="1280" height="1280" xmlns="http://www.w3.org/2000/svg">
<path transform="translate(321,85)" d="m0 0h551l26 3 23 5 24 8 25 11 16 9 15 10 17 13 15 14 12 12 9 11 12 16 12 20 8 15 8 19 6 18 5 21 3 18 2 22 1 19 3 17 5 13 9 14 11 12 10 7 16 8 15 4 9 1 210 1h317l26 2 23 4 24 7 25 10 16 8 17 10 15 11 11 9 13 12 12 12 9 11 10 13 12 19 11 21 10 25 7 25 4 22 2 21v883l-2 19-3 19-6 23-7 20-7 16-13 23-8 12-12 16-12 13-7 8h-2v2l-8 7-16 13-15 10-15 9-22 11-25 9-24 6-26 4-13 1h-541l-22-2-25-5-26-8-23-10-19-10-11-7-11-8-14-11-17-16-15-16-12-16-11-17-14-27-9-24-7-26-4-26-3-42-4-15-8-16-8-11-7-7-13-9-15-7-12-3-7-1-330-1h-275v376l-1 61-3 14-5 13-7 12-11 13-12 9-16 8-12 4-10 2h-20l-17-4-17-8-13-10-8-8-8-11-7-14-3-9-2-11v-1568l3-23 6-26 8-24 11-24 9-16 8-12 15-20h2l2-4 15-16h2v-2l11-9 9-8 21-14 16-9 16-8 21-8 30-8 20-3zm277 171v341l81 1h107l151-1 1-179v-80l-2-16-4-13-7-14-10-13-13-11-12-7-18-6-18-2zm-299 341-42 1-1 38v302h341v-340l-40-1zm845 0-34 1v340h339l1-233v-107l-31-1zm338 341-30 1-1 1-1 340h339l2-1v-340l-200-1zm-884 1v340l334 1 6-1v-340zm512 341v264l3 17 7 16 7 11 10 11 11 8 15 8 18 5 8 1h260l1-11v-329l-13-1z"/>
</svg>
